<svg viewBox="0 0 100 100" xmlns="http://www.w3.org/2000/svg"><path d="M84 56c0 .7-.5 1-1 2l-8 1c-.5 1-1 3-2 4 2 2 3 4 5 6 .3.3.4.7.4 1s-.1.7-.4 1c-1 1-7 8-8 8-.4 0-.8-.2-1-.4l-6-5c-1 .7-3 1-4 2-.3 3-.6 6-1 8-.2.7-.8 1-2 1H46c-.8 0-2-.6-2-1l-1-8c-1-.4-3-1-4-2l-6 5c-.3.3-.7.4-1 .4s-.8-.2-1-.5l-7-7c-.2-.3-.3-.7-.3-1 0-.4.1-.7.3-1 2-2 3-4 5-6-.7-1-1-3-2-4l-8-1c-.7-.1-1-.8-1-2v-10c0-.7.5-1 1-2l8-1c.4-1 1-3 2-4-2-2-3-4-5-6-.3-.3-.4-.7-.4-1 0-.4.2-.7.4-1 1-1 7-8 8-8 .4 0 .8.2 1 .4l6 5c1-.7 3-1 4-2 .3-3 .6-6 1-8 .2-.7.8-1 2-1h10c.8 0 2 .6 2 1l1 8c1 .4 3 1 4 2l6-5c.3-.3.7-.4 1-.4s.8.2 1 .4l7 7c.2.3.3.6.3 1s-.1.7-.3 1c-2 2-3 4-5 6 .7 1 1 3 2 4l8 1c.7.1 1 .8 1 2v10zM50 40c-6 0-11 5-11 11s5 11 11 11 11-5 11-11-5-11-11-11z"/></svg>