<?xml version="1.0" standalone="no"?>
<!DOCTYPE svg PUBLIC "-//W3C//DTD SVG 20010904//EN"
 "http://www.w3.org/TR/2001/REC-SVG-20010904/DTD/svg10.dtd">
<svg version="1.0" xmlns="http://www.w3.org/2000/svg"
 width="1000.000000pt" height="1000.000000pt" viewBox="0 0 1000.000000 1000.000000"
 preserveAspectRatio="xMidYMid meet">
<metadata>
Created by potrace 1.11, written by Peter Selinger 2001-2013
</metadata>
<g transform="translate(0.000000,1000.000000) scale(0.100000,-0.100000)"
fill="#000000" stroke="none">
<path d="M725 9576 c-107 -34 -182 -94 -224 -178 l-31 -61 0 -1736 0 -1736
721 -305 c397 -168 728 -309 735 -315 24 -20 -2 -895 -42 -1360 -39 -471 -122
-1038 -224 -1525 -22 -107 -40 -201 -40 -207 0 -10 656 -13 3245 -13 l3245 0
-5 23 c-76 325 -164 858 -210 1267 -50 444 -72 824 -81 1405 l-7 410 484 204
c266 112 598 251 736 310 l253 106 -3 1740 -2 1740 -23 44 c-34 62 -103 125
-180 163 l-67 33 -740 0 -740 0 -67 -33 c-81 -40 -159 -120 -182 -188 -14 -41
-16 -113 -16 -531 l0 -483 -550 0 -549 0 -3 493 -3 492 -23 47 c-32 66 -104
133 -181 171 l-66 32 -1015 0 -1015 0 -67 -32 c-80 -37 -141 -96 -174 -166
l-24 -52 0 -492 0 -493 -550 0 -550 0 0 473 c0 396 -3 482 -15 525 -22 73
-106 162 -194 205 l-66 32 -725 2 c-565 1 -734 -1 -765 -11z m4345 -3737 c41
-10 118 -40 170 -66 80 -39 109 -60 185 -137 66 -66 99 -109 123 -158 61 -124
62 -138 62 -840 l0 -638 -735 0 -736 0 3 678 c3 673 3 677 25 736 50 131 141
243 262 321 191 124 416 160 641 104z"/>
<path d="M732 1504 c-29 -7 -67 -21 -84 -30 -53 -27 -130 -106 -154 -159 -24
-50 -24 -53 -24 -420 0 -368 0 -370 24 -421 31 -67 87 -120 166 -158 l65 -31
4145 0 4145 0 65 32 c85 42 154 111 180 180 19 50 20 78 20 397 0 390 -2 403
-76 485 -57 64 -125 106 -199 126 -53 13 -485 15 -4140 14 -3490 0 -4088 -2
-4133 -15z"/>
</g>
</svg>
