<?xml version="1.0" standalone="no"?>
<!DOCTYPE svg PUBLIC "-//W3C//DTD SVG 20010904//EN"
 "http://www.w3.org/TR/2001/REC-SVG-20010904/DTD/svg10.dtd">
<svg version="1.0" xmlns="http://www.w3.org/2000/svg"
 width="1000.000000pt" height="1000.000000pt" viewBox="0 0 1000.000000 1000.000000"
 preserveAspectRatio="xMidYMid meet">
<metadata>
Created by potrace 1.11, written by Peter Selinger 2001-2013
</metadata>
<g transform="translate(0.000000,1000.000000) scale(0.100000,-0.100000)"
fill="#000000" stroke="none">
<path d="M8733 9339 c-40 -5 -85 -15 -101 -23 -43 -22 -290 -206 -879 -654
-857 -651 -1001 -755 -1202 -867 -316 -176 -658 -307 -1051 -405 -408 -100
-578 -110 -2050 -110 -569 -1 -1325 -5 -1680 -10 -604 -8 -650 -10 -730 -30
-86 -21 -244 -90 -315 -138 -200 -133 -357 -327 -435 -536 -51 -136 -52 -143
-57 -926 -5 -771 4 -1109 32 -1212 75 -275 275 -524 526 -653 195 -100 292
-115 763 -115 299 0 318 -1 311 -18 -21 -54 -29 -187 -29 -517 -1 -398 5 -461
69 -780 62 -307 140 -555 256 -809 141 -311 253 -433 428 -466 70 -13 1344
-13 1470 0 120 13 171 39 277 146 94 94 138 173 154 275 17 115 -11 209 -112
367 -180 284 -256 434 -320 627 -84 256 -116 555 -88 825 9 86 48 331 53 337
9 8 821 -19 945 -32 397 -41 721 -121 1087 -267 468 -188 645 -304 1707 -1115
491 -375 738 -562 794 -601 69 -47 250 -67 376 -41 142 29 257 125 338 280
l44 84 4 1300 5 1301 76 49 c89 59 227 192 294 287 62 87 113 198 144 317 22
83 26 117 26 246 0 130 -3 163 -26 249 -64 239 -200 432 -413 588 l-83 60 -3
1266 c-4 1415 1 1310 -76 1456 -104 198 -290 291 -529 265z m-448 -2116 c9
-629 -1 -3984 -12 -4031 l-8 -33 -75 52 c-41 29 -158 116 -260 194 -483 369
-714 520 -1070 699 -228 116 -369 177 -582 254 -481 175 -957 271 -1491 302
-105 6 -211 13 -234 16 l-43 5 0 778 0 779 108 6 c854 54 1433 187 2082 481
401 181 640 333 1295 823 148 111 273 202 276 202 4 0 10 -237 14 -527z"/>
</g>
</svg>
